<?xml version="1.0" encoding="utf-8"?>
<!-- Generator: Adobe Illustrator 28.1.0, SVG Export Plug-In . SVG Version: 6.00 Build 0)  -->
<svg version="1.1" id="Ebene_1" xmlns="http://www.w3.org/2000/svg" xmlns:xlink="http://www.w3.org/1999/xlink" x="0px" y="0px"
	 viewBox="0 0 30 30" style="enable-background:new 0 0 30 30;" xml:space="preserve">
<path d="M25.3,4.7C22.6,1.9,18.9,0.4,15,0.4c-3.5,0-6.9,1.2-9.5,3.5L2.7,1.1l-0.6,9.6l9.8-0.7L9.1,7.5c1.7-1.3,3.7-2,5.9-2
	c5.3,0,9.6,4.3,9.6,9.6s-4.3,9.6-9.6,9.6c-2.4,0-4.7-0.9-6.5-2.6c-1.8-1.6-2.8-3.9-3-6.3L5.4,15h-5l0.1,0.9
	C0.9,23.6,7.3,29.6,15,29.6c3.9,0,7.6-1.5,10.3-4.3c2.8-2.8,4.3-6.4,4.3-10.3S28.1,7.4,25.3,4.7z"/>
</svg>
