<?xml version="1.0" encoding="utf-8"?>
<!-- Generator: Adobe Illustrator 26.0.1, SVG Export Plug-In . SVG Version: 6.00 Build 0)  -->
<svg version="1.1" id="Ebene_1" xmlns="http://www.w3.org/2000/svg" xmlns:xlink="http://www.w3.org/1999/xlink" x="0px" y="0px"
	 viewBox="0 0 35.7 29.2" style="enable-background:new 0 0 35.7 29.2;" xml:space="preserve">
<g>
	<path d="M7.2,8.9H2c-1.1,0-2,0.9-2,2v7.2c0,1.1,0.9,2,2,2h5.1l10.1,9.1v-3.1V2.9V0L15,1.9L7.2,8.9z"/>
	<path d="M31.5,3.5L31,2.9l-2.4,2l0.4,0.6c2,2.6,3,5.7,3,9c0,3.3-1.1,6.5-3,9.1l-0.4,0.6l2.3,2l0.5-0.6c2.4-3.1,3.7-7,3.7-11
		C35.2,10.5,33.9,6.7,31.5,3.5z"/>
	<path d="M25.2,6.9l-2.3,2l0.5,0.6c1.2,1.5,1.8,3.3,1.8,5.1c0,1.9-0.7,3.7-1.8,5.1l-0.5,0.6l2.3,2l0.5-0.6c1.6-2,2.6-4.5,2.6-7.1
		c0-2.6-0.9-5.1-2.6-7.1L25.2,6.9z"/>
</g>
</svg>
